<!-- Generator: Adobe Illustrator 18.1.1, SVG Export Plug-In  -->
<svg version="1.1"
	 xmlns="http://www.w3.org/2000/svg" xmlns:xlink="http://www.w3.org/1999/xlink" xmlns:a="http://ns.adobe.com/AdobeSVGViewerExtensions/3.0/"
	 x="0px" y="0px" width="63.2px" height="63.2px" viewBox="0 0 63.2 63.2" enable-background="new 0 0 63.2 63.2"
	 xml:space="preserve">
<defs>
</defs>
<path fill="#FFFFFF" d="M31.6,0C14.2,0,0,14.2,0,31.6s14.2,31.6,31.6,31.6s31.6-14.2,31.6-31.6S49.1,0,31.6,0z M40,23.9l-0.5,6.6
	h-6.7v22.9h-8.5V30.5h-4.5v-6.6h4.5v-2.1v-2v-0.3c0-1.9,0.1-5,1.5-6.8c1.5-2,3.5-3.3,7.1-3.3c5.7,0,8.2,0.8,8.2,0.8l-1.1,6.7
	c0,0-1.9-0.5-3.7-0.5c-1.8,0-3.4,0.6-3.4,2.4v0.7v2.4v2.1H40z"/>
</svg>
