<!-- Generator: Adobe Illustrator 18.1.1, SVG Export Plug-In  -->
<svg version="1.1"
	 xmlns="http://www.w3.org/2000/svg" xmlns:xlink="http://www.w3.org/1999/xlink" xmlns:a="http://ns.adobe.com/AdobeSVGViewerExtensions/3.0/"
	 x="0px" y="0px" width="380.6px" height="380.6px" viewBox="0 0 380.6 380.6" enable-background="new 0 0 380.6 380.6"
	 xml:space="preserve">
<defs>
</defs>
<path fill="#FFFFFF" d="M301.2,79.4V0H0v301.2h79.4v79.4h301.2V79.4H301.2z M263.2,322.9l-14-59.2h-37.4l-14,59l-29.9-8.1l13.4-52.5
	l-44.3-91.5h-11.4v85.3l-34-9.9V49.6h60.8c12.2,0,24.4,5.4,33.6,14.7c7.5,7.5,16.4,21.3,16.4,43.5c0,27.2-11,47.8-30.6,57.8
	l22.2,46.1l20.9-82.1H246l47.1,184.8L263.2,322.9z"/>
<polygon fill="#FFFFFF" points="219,235.6 241.9,235.6 230.5,187.4 "/>
<path fill="#FFFFFF" d="M143.4,81.6h-17.9v57H148c13.2,0,19.9-10.1,19.9-30.8C167.9,85.8,158.1,81.6,143.4,81.6z"/>
</svg>
