<!-- Generator: Adobe Illustrator 18.1.1, SVG Export Plug-In  -->
<svg version="1.1"
	 xmlns="http://www.w3.org/2000/svg" xmlns:xlink="http://www.w3.org/1999/xlink" xmlns:a="http://ns.adobe.com/AdobeSVGViewerExtensions/3.0/"
	 x="0px" y="0px" width="63.2px" height="63.2px" viewBox="0 0 63.2 63.2" enable-background="new 0 0 63.2 63.2"
	 xml:space="preserve">
<defs>
</defs>
<path fill="#FFFFFF" d="M31.6,0C14.2,0,0,14.2,0,31.6s14.2,31.6,31.6,31.6s31.6-14.2,31.6-31.6S49.1,0,31.6,0z M50.2,30.2
	c1.3,0.3,2.7,0.4,4.2,0.3c-1.2,1.3-3,2-5.3,2.1c-1.4,5.3-4.7,9-8.9,11.4c-9.8,5.6-24,4.8-31.2-5.3c4.7,3.7,11.6,4.5,16.8-0.6
	c-3.4,0-4.3-2.5-1.6-3.9c-2.5,0-4.2-0.8-5.1-2.3c-0.4-0.6-0.4-0.6,0.2-1c0.6-0.5,1.5-0.7,2.4-0.7c-2.6-0.8-4.2-2.1-4.8-4
	c-0.2-0.6-0.2-0.6,0.4-0.7c0.6-0.2,1.4-0.2,2.1-0.3c-2.1-1.2-3.3-2.8-3.6-4.5c-0.3-1.6,0-1.2,1.2-0.7c5.4,2.1,10.7,4.3,13.9,7.5
	c1.5-4.5,3.2-7.5,5.3-9.6c1.5-1.6,2.3-2.1,1.4-0.3c0.4-0.3,1-0.7,1.4-1c2.5-1.2,2.3-0.2,0.6,0.9c4.7-1.7,4.5,0.5-0.4,1.5
	c4,0.1,8.3,2.6,9.5,8.1c0.2,0.8,0,0.7,0.7,0.8c1.7,0.3,3.2,0.3,4.8-0.2c-0.2,1.1-1.7,1.9-4,2.3C49.3,30,49.1,29.9,50.2,30.2z"/>
</svg>
